<svg xmlns="http://www.w3.org/2000/svg" width="640" height="480" viewBox="0 0 640 480" fill="none" role="img" aria-labelledby="title desc">
  <title id="title">Custom Product Placeholder</title>
  <desc id="desc">A soft beige and rose gradient with a stylized custom bottle and sparkles.</desc>
  <defs>
    <linearGradient id="bg" x1="40" y1="20" x2="600" y2="460" gradientUnits="userSpaceOnUse">
      <stop stop-color="#F7E8E0"/>
      <stop offset="0.55" stop-color="#F2D9CF"/>
      <stop offset="1" stop-color="#E8C8BE"/>
    </linearGradient>
    <linearGradient id="bottle" x1="300" y1="130" x2="360" y2="420" gradientUnits="userSpaceOnUse">
      <stop stop-color="#D89A88"/>
      <stop offset="1" stop-color="#B26D5E"/>
    </linearGradient>
    <linearGradient id="label" x1="280" y1="280" x2="380" y2="360" gradientUnits="userSpaceOnUse">
      <stop stop-color="#FFF7F2"/>
      <stop offset="1" stop-color="#FCEFE8"/>
    </linearGradient>
  </defs>

  <rect width="640" height="480" fill="url(#bg)"/>

  <circle cx="530" cy="120" r="62" fill="#FFFFFF" fill-opacity="0.22"/>
  <circle cx="120" cy="390" r="82" fill="#FFFFFF" fill-opacity="0.18"/>

  <rect x="274" y="106" width="92" height="30" rx="10" fill="#6E4B43" fill-opacity="0.72"/>
  <rect x="250" y="132" width="140" height="256" rx="34" fill="url(#bottle)"/>

  <rect x="270" y="258" width="100" height="86" rx="14" fill="url(#label)"/>
  <path d="M302 290h36M302 310h36" stroke="#D2A59A" stroke-width="6" stroke-linecap="round"/>

  <path d="M168 152l8 18 18 8-18 8-8 18-8-18-18-8 18-8 8-18Z" fill="#D89A88" fill-opacity="0.9"/>
  <path d="M500 292l6 14 14 6-14 6-6 14-6-14-14-6 14-6 6-14Z" fill="#C98777" fill-opacity="0.86"/>
</svg>
